<svg  viewBox="0 0 166 166" aria-hidden="true" role="img" class="iconify iconify--logos" width="166" height="166" preserveAspectRatio="xMidYMid meet" fill="none" xmlns="http://www.w3.org/2000/svg">
<rect width="166" height="166" rx="83" fill="white"/>
<path d="M73.5156 39.7751C73.8438 40.0212 74.2189 40.1824 74.5478 40.4516C74.7734 40.6362 74.9283 40.7321 74.5078 40.6721C74.1914 40.6269 73.726 40.1659 73.5105 39.9505C73.0625 39.5024 72.6897 39.1088 72.378 38.5574C72.0369 37.9539 71.6126 37.3686 71.2405 36.7785C71.0074 36.4086 70.6314 35.7996 70.2884 35.5357C69.9603 35.2833 69.6402 34.8821 69.3263 34.5936C68.6913 34.0101 67.8688 33.5284 67.1515 33.0502C66.6226 32.6976 65.5751 32.1654 65.3926 31.5268C65.2276 30.9493 64.1156 31.0257 63.6788 31.0257C63.225 31.0257 62.7424 31.1725 62.3108 31.3164C61.9722 31.4292 61.7729 31.5112 62.2206 31.4767C62.9397 31.4214 63.6037 30.7045 64.3152 30.6649C65.5493 30.5964 66.2977 31.3757 67.3369 31.8375C67.6506 31.977 67.9295 32.4246 68.284 32.4689C68.5812 32.5061 68.8167 32.8878 69.0056 33.1003C69.2547 33.3805 69.4964 33.5009 69.7723 33.7768C70.0916 34.0961 70.3522 34.5272 70.5941 34.8993C70.8912 35.3563 71.3465 35.7641 71.6715 36.2072C72.3687 37.1579 72.6849 38.199 73.696 38.8731" stroke="#70AD61" stroke-width="3" stroke-linecap="round"/>
<path d="M48.2441 69.2945C47.9284 69.3822 47.8021 70.007 47.7205 70.2756C47.536 70.8836 47.2939 71.4996 47.2668 72.141C47.2438 72.6855 47.378 72.5703 47.546 72.141C47.7962 71.5015 47.8305 70.7364 47.7244 70.0623C47.6556 69.6255 47.5612 69.17 47.4413 68.7438C47.3991 68.5939 47.3065 68.2834 47.2513 68.5964C47.1153 69.3669 47.1904 70.2052 47.197 70.9853C47.1981 71.1144 47.3917 72.6952 47.5305 72.0014C47.6529 71.3892 47.6856 70.7698 47.6856 70.1477C47.6856 70.1078 47.701 69.6425 47.6507 69.8335C47.5694 70.1424 47.5725 70.5164 47.546 70.8341C47.4721 71.7209 47.3837 72.6054 47.3017 73.4905C47.2072 74.5115 47.2161 75.529 47.0884 76.5503C46.8618 78.3633 46.531 80.1657 47.0225 81.968C47.1881 82.5753 47.1528 83.661 47.8252 83.9225C47.9983 83.9898 48.4092 84.2799 48.5621 84.0854C48.9017 83.6532 49.3921 83.3483 49.8341 83.0306C50.5316 82.5292 51.3706 81.9332 51.8739 81.2311C51.9346 81.1465 52.1609 80.827 52.0407 81.1342C51.9195 81.4438 51.6722 81.7 51.4551 81.9447C50.9143 82.5543 50.2235 82.9876 49.7255 83.6588C49.5105 83.9486 49.314 84.2512 49.167 84.5818C49.0532 84.8379 49.3811 84.8329 49.5393 84.7602C50.2607 84.4288 50.9833 84.149 51.6878 83.7596C52.5682 83.2731 53.519 82.7275 54.193 81.968C54.8217 81.2595 55.3679 81.2164 55.9924 80.5C56.5566 79.8528 57.1692 78.5504 57.7337 77.9154C58.2195 77.3688 58.6364 76.782 59.0949 76.2129C59.5356 75.6658 60.078 75.1594 60.4561 74.5686C60.7168 74.1613 61.0812 73.7939 61.4527 73.4828C62.1237 72.9211 62.6862 72.1941 63.4616 71.7532C63.8567 71.5285 64.2142 71.2275 64.5784 70.9543C64.7377 70.8348 65.2067 70.6054 65.2067 70.3765C65.2067 70.0715 65.1527 69.717 64.8538 69.5427C64.2682 69.2011 63.5539 69.1034 62.8915 68.9804C61.5491 68.7311 60.1914 68.5687 58.8505 68.3133C56.6258 67.8896 54.34 67.9884 52.0872 67.8945C51.1773 67.8566 50.2734 67.8286 49.3609 67.8286C49.1981 67.8286 49.0352 67.8286 48.8723 67.8286C48.6469 67.8286 48.5767 67.7698 48.818 67.8441C51.16 68.5647 53.5438 68.9723 55.9924 69.1549C56.6022 69.2003 57.2479 69.1741 57.85 69.2945C57.9383 69.3122 57.0076 69.4913 56.8844 69.5039C54.4223 69.7568 51.947 69.932 49.4928 70.2562C48.4872 70.3891 47.4942 70.6022 46.4873 70.7216C46.4385 70.7274 45.7447 70.7665 46.1266 70.7604C46.9068 70.748 47.6901 70.6339 48.469 70.5859C49.9233 70.4962 51.3714 70.4812 52.8279 70.4812C53.5388 70.4812 54.2438 70.4211 54.9531 70.4114C55.32 70.4063 55.069 70.48 54.86 70.5898C54.2143 70.9287 53.4719 71.1112 52.7814 71.3343C51.7862 71.656 50.7943 71.9933 49.803 72.3271C49.1941 72.5322 48.5768 72.757 47.9959 73.0329C47.8168 73.118 48.5563 73.0288 48.6164 73.0213C51.4723 72.6643 54.3513 72.146 57.1752 71.5942C58.4189 71.3512 59.6495 71.0497 60.8865 70.7759C61.0151 70.7474 61.6421 70.5164 61.2006 70.7022C59.1828 71.5519 57.1773 72.3709 55.2013 73.3199C52.7482 74.498 50.3114 75.7852 47.9261 77.0971C46.5953 77.8291 50.8682 76.3179 52.285 75.7708C54.8463 74.7818 57.1356 73.3029 59.63 72.1875C59.8446 72.0916 60.416 71.7328 60.0256 72.172C59.5253 72.7349 58.9381 73.2093 58.3891 73.7232C56.5564 75.4389 54.5257 76.9049 52.4324 78.2838C52.3286 78.3522 51.552 78.7684 51.6063 78.9586C51.6787 79.212 52.6456 78.7156 52.7193 78.6755C54.0827 77.9337 55.4674 77.2288 56.7215 76.306C57.0514 76.0632 57.3642 75.8174 57.7065 75.5925C57.8754 75.4815 57.4646 75.9627 57.4079 76.0113C56.2057 77.0418 55.0843 78.1681 53.8595 79.1758C53.1193 79.7848 52.2053 80.42 51.6645 81.2311" stroke="#70AD61" stroke-width="3" stroke-linecap="round"/>
<path d="M101.142 68.8203C101.142 69.5582 101.915 70.0598 102.386 70.5181C102.635 70.7596 102.918 70.9826 103.183 71.2049C103.523 71.4905 103.814 71.8276 104.146 72.1229C104.781 72.6869 105.225 73.4183 105.796 74.0354C105.95 74.2009 106.107 74.3806 106.249 74.5552C106.423 74.7685 106.648 74.9551 106.807 75.1728C107.024 75.4698 107.316 75.7025 107.547 75.9883C108.005 76.5577 108.504 77.1028 109.02 77.6194C109.5 78.0986 109.859 78.7192 110.282 79.248C110.976 80.1163 111.521 81.0846 112.344 81.8258C113.064 82.4734 113.803 83.0951 114.598 83.6452C114.857 83.8244 115.2 83.8894 115.456 84.0601C115.756 84.26 116.032 84.4891 116.327 84.7016C116.575 84.8801 116.813 85.0895 117.118 85.2071C117.293 85.2744 117.676 85.4657 117.819 85.281C117.99 85.062 118.057 84.7559 118.106 84.4869C118.188 84.0351 118.32 83.5588 118.458 83.123C118.599 82.6798 118.632 82.2178 118.687 81.759C118.756 81.1855 118.826 80.6111 118.826 80.0326C118.826 79.0031 118.783 77.9807 118.783 76.9517C118.783 76.0663 118.954 75.2025 118.954 74.3143C118.954 73.1732 118.912 72.0343 118.912 70.8901C118.912 70.5085 118.826 70.147 118.826 69.7646C118.826 69.5143 118.799 69.2352 118.675 69.0134C118.59 68.8596 118.385 68.9061 118.234 68.9061C117.653 68.9061 117.081 68.9342 116.501 68.9705C115.559 69.0294 114.609 69.1984 113.665 69.2066C113.039 69.212 112.413 69.2066 111.786 69.2066C110.411 69.2066 109.056 69.0072 107.685 68.992C107.179 68.9864 106.668 68.9223 106.166 68.8632C105.742 68.8134 105.322 68.8203 104.895 68.8203C104.453 68.8203 104.011 68.8203 103.569 68.8203C103.48 68.8203 103.015 68.8606 103.161 68.7964C103.653 68.5814 104.308 68.6002 104.833 68.5198C105.787 68.3737 106.739 68.2989 107.699 68.2098C108.201 68.1632 108.655 67.9595 109.144 67.8855C109.591 67.818 110.087 67.876 110.539 67.876C111.143 67.876 111.741 67.9618 112.344 67.9618C113.384 67.9618 114.399 67.9714 115.435 68.0668C115.637 68.0853 115.855 68.1335 116.057 68.1335C116.349 68.1335 115.944 68.2963 115.859 68.3148C115.08 68.485 114.204 68.4637 113.41 68.496C112.203 68.5451 111.002 68.6198 109.798 68.7058C107.759 68.8514 105.745 69.0356 103.698 68.9896C103.345 68.9817 102.982 68.971 102.63 68.9467C102.533 68.94 102.465 68.873 102.386 68.8632C102.363 68.8603 102.281 68.8049 102.353 68.8298C102.628 68.9251 102.891 69.0709 103.159 69.1851C104.314 69.677 105.559 69.9692 106.772 70.2773C106.823 70.2904 107.308 70.3706 107.103 70.4728C106.914 70.5673 106.704 70.5869 106.507 70.6564C106.426 70.6847 105.451 71.0891 105.529 71.1572C105.592 71.2118 105.784 71.1811 105.854 71.1834C106.095 71.1913 106.335 71.2159 106.576 71.2216C107.52 71.2438 108.472 71.0957 109.411 71.0189C110.5 70.9298 111.584 70.8069 112.673 70.7303C113.106 70.6999 114.388 70.5038 113.971 70.623C112.89 70.9318 111.804 71.2399 110.701 71.4648C109.923 71.6236 109.142 71.8278 108.381 72.0609C108.215 72.1119 108.052 72.1738 107.88 72.2064C107.864 72.2096 108.25 72.2052 108.329 72.2016C110.383 72.1087 112.43 72.0384 114.476 71.8034C115.175 71.7232 115.883 71.6135 116.575 71.4815C116.995 71.4011 116.516 71.443 116.372 71.4624C114.843 71.6682 113.313 71.8531 111.782 72.0395C110.858 72.1519 109.94 72.3061 109.016 72.4162C108.475 72.4807 107.883 72.523 107.356 72.6618C106.824 72.8019 108.433 72.4346 108.968 72.3065C109.16 72.2605 109.619 72.2049 109.755 72.0418C109.76 72.036 109.064 72.109 108.963 72.1253C108.51 72.1989 108.042 72.3004 107.604 72.4353C107.514 72.4629 106.879 72.7124 106.948 72.7262C107.349 72.8064 107.785 72.7741 108.19 72.7668C108.972 72.7526 109.76 72.6777 110.523 72.5021C110.665 72.4693 111.206 72.3916 111.228 72.1682C111.249 71.9606 110.891 71.9164 110.747 71.894C110.109 71.7951 109.43 71.8219 108.787 71.8249C107.968 71.8286 107.172 71.8963 106.373 72.08C106.127 72.1367 105.564 72.1952 105.422 72.4472C105.306 72.6516 105.49 72.7822 105.658 72.855C106.238 73.1064 106.946 73.126 107.566 73.1459C108.8 73.1856 110.049 73.1873 111.271 72.9981C112.308 72.8376 113.336 72.6079 114.316 72.2302C114.924 71.9963 115.522 71.7523 116.017 71.3193C116.062 71.2797 116.366 70.9842 116.174 70.9688C115.8 70.9389 115.413 70.9707 115.049 71.0522C113.67 71.3605 112.215 71.9475 111.023 72.7071C110.612 72.9693 109.518 73.9265 110.37 74.3477C110.761 74.5411 111.27 74.5012 111.691 74.4765C112.566 74.4253 113.495 74.0787 114.293 73.7301C114.911 73.46 115.518 73.0803 115.95 72.5545C116.054 72.4273 116.25 72.2419 116.25 72.0609C116.25 71.7421 113.873 72.3409 113.718 72.3828C111.921 72.8705 110.03 73.5983 108.52 74.7126C108.47 74.7492 108.08 74.999 108.212 75.1108C108.53 75.3803 109.252 75.2689 109.626 75.2491C110.56 75.1997 111.532 74.926 112.409 74.61C113.054 74.3775 113.691 74.071 114.214 73.6181C114.299 73.5441 114.498 73.3747 114.491 73.2413C114.482 73.0746 113.79 73.1569 113.708 73.1626C113.028 73.2101 112.331 73.4988 111.72 73.785C111.005 74.1196 110.239 74.5731 109.702 75.1633C109.575 75.3034 109.308 75.6031 109.521 75.7737C109.895 76.0726 110.45 76.0353 110.895 76.0527C112.325 76.1086 114.281 75.9809 115.327 74.8413C115.353 74.8134 116.064 73.8322 115.835 73.7659C115.51 73.6715 115.051 73.8531 114.767 73.99C114.005 74.3578 113.315 74.8437 112.633 75.3397C112.205 75.651 110.881 76.3412 111.214 77.0948C111.518 77.7808 112.876 77.2718 113.289 77.0614C114.392 76.4986 115.27 75.6409 115.924 74.6005C115.996 74.4859 116.117 74.309 116.117 74.1641C116.117 73.9903 115.547 74.2059 115.487 74.238C114.54 74.7498 113.641 75.6279 113.081 76.5439C112.853 76.9168 112.733 77.2792 112.783 77.7195C112.827 78.1057 113.219 78.258 113.551 78.3276C114.885 78.6073 116.269 78.1179 116.808 76.7895C116.93 76.4899 117.419 75.2679 116.892 75.0703C116.578 74.9525 116.14 75.1088 115.864 75.2467C115.114 75.6219 114.399 76.2158 113.785 76.78C113.123 77.3877 112.538 78.1061 112.158 78.9261C112.055 79.1506 111.737 79.795 111.934 80.0564C112.05 80.2099 112.431 80.2358 112.602 80.2376C113.058 80.2426 113.456 80.0311 113.809 79.7559C114.299 79.3724 114.694 78.863 114.941 78.2918C115.149 77.8114 115.27 77.2713 115.544 76.8229C115.717 76.5404 115.416 76.7205 115.311 76.8325C114.752 77.429 114.272 78.0819 113.782 78.7353C113.468 79.1547 111.879 81.008 112.819 81.5611C113.645 82.0468 114.87 81.329 115.378 80.6859C115.816 80.1311 116.118 79.4983 116.336 78.8307C116.435 78.53 116.621 78.2123 116.677 77.9007C116.709 77.7235 116.354 77.9965 116.331 78.0176C115.789 78.5327 115.357 79.1474 114.929 79.7559C114.633 80.1772 113.655 81.4535 114.553 81.7733C115.436 82.0879 116.369 81.353 116.699 80.581C116.774 80.4052 117.26 79.2607 117.185 80.085C117.082 81.221 116.25 82.2156 116.25 83.3805C116.25 83.4175 116.278 83.3115 116.298 83.2803C116.382 83.1491 116.473 83.0201 116.541 82.8797C116.871 82.1975 116.916 81.3809 116.959 80.6406C117.033 79.3335 116.951 78.0708 116.744 76.7776C116.58 75.7516 116.332 74.7511 116.25 73.7134C116.208 73.1812 116.236 72.6317 116.131 72.1062C116.078 71.8405 116.154 72.6486 116.191 72.917C116.268 73.4765 116.423 74.0672 116.613 74.5981C116.654 74.7139 116.865 75.2928 116.99 74.982C117.162 74.551 117.204 74.1208 117.323 73.6777C117.372 73.4987 117.421 73.2192 117.581 73.1125" stroke="#70AD61" stroke-width="3" stroke-linecap="round"/>
<path d="M49.5704 76.624C49.5704 77.5066 49.1812 78.3991 48.9576 79.2456C48.8727 79.5669 48.7327 79.8755 48.7327 80.2112C48.7327 80.3002 48.7277 80.5467 48.7327 80.2927C48.7413 79.8563 48.8557 79.4237 48.9382 78.9974C49.0852 78.2379 49.0153 77.4242 49.0119 76.655C49.0075 75.6486 48.7327 74.6841 48.7327 73.6922C48.7327 72.6454 48.9359 75.7789 48.9421 76.8257C48.9473 77.6969 48.8189 80.302 48.9421 79.4395C49.025 78.859 49.2376 78.2764 49.4308 77.7254C49.5688 77.3316 49.653 76.9221 49.8108 76.5348C49.9606 76.1673 49.9652 76.7606 49.9737 76.88C50.0708 78.2395 49.9505 79.6168 49.6945 80.9519C49.5474 81.7188 49.3977 82.517 49.1515 83.2555C48.9771 83.7789 48.9262 84.3429 48.787 84.8998C48.7545 85.0299 48.2526 85.9554 48.3294 86.0322C48.3465 86.0493 48.6901 85.7093 48.7172 85.6832C49.1018 85.3123 49.5616 85.0292 49.9737 84.6904C50.3807 84.3557 50.6416 83.8692 51.0363 83.5192C51.3444 83.246 51.553 82.8851 51.8623 82.6117C52.2877 82.2358 52.7273 81.8926 53.2002 81.5802C54.0861 80.9949 54.9744 80.3902 55.8916 79.8661C56.8345 79.3273 57.6887 78.5748 58.5907 77.9503C58.9872 77.6758 59.2206 77.1412 59.4827 76.7481C59.6842 76.4458 59.8503 76.0659 60.0954 75.8019C60.2491 75.6364 60.4747 75.4248 60.584 75.2279C60.9766 74.5214 61.9439 74.1268 62.2051 73.3432" stroke="#70AD61" stroke-width="3" stroke-linecap="round"/>
<path d="M88.363 43.3369C88.363 44.008 88.0795 44.5495 87.9027 45.1846C87.8248 45.4643 87.452 47.5654 87.712 47.5979C87.9729 47.6305 87.9487 48.9952 87.9487 49.1924C87.9487 49.5672 87.9487 49.942 87.9487 50.3168C87.9487 50.4479 87.9244 50.8255 87.86 50.9415C87.6813 51.2631 87.7712 51.7789 87.7712 52.1547C87.7712 52.5866 87.712 52.9701 87.712 53.3975C87.712 53.778 87.7551 54.2082 87.6561 54.5548C87.63 54.6461 87.6756 54.7528 87.6495 54.8441C87.6346 54.8963 87.5345 55.0134 87.5345 54.9592C87.5345 54.8137 87.7751 54.4873 87.8632 54.374C88.2851 53.8316 88.7686 53.4061 89.2507 52.924C89.4247 52.75 89.6597 52.5531 89.7701 52.3322C89.8678 52.1369 89.8995 51.9231 90.02 51.7273C90.1534 51.5106 90.1852 51.2536 90.3028 51.0303C90.458 50.7353 90.6489 50.5004 90.8222 50.2281C91.1756 49.6728 91.7235 49.2085 92.1801 48.7519C92.7216 48.2103 93.2484 47.6556 93.8075 47.1244C94.2494 46.7046 94.674 46.2579 95.1095 45.8225C95.3009 45.6311 95.6282 45.4489 95.7605 45.2307C95.9463 44.9241 96.3076 44.5903 96.589 44.3693C97.2156 43.8769 97.526 43.0399 98.246 42.6399C98.5193 42.4881 98.762 42.2363 99.0154 42.0481C99.4241 41.7445 99.906 41.5558 100.321 41.2656C100.968 40.8125 101.674 40.3586 102.359 39.99C102.615 39.8523 102.859 39.767 103.132 39.6678C103.347 39.5894 104.025 39.4807 103.796 39.4902C103.59 39.4988 103.288 39.7096 103.099 39.7993C102.744 39.967 102.375 40.0806 102.007 40.2135C101.321 40.4615 100.647 40.7027 99.9951 41.0289C99.675 41.189 99.2758 41.3147 99.0154 41.5615C98.7074 41.8533 98.3756 42.1319 98.0652 42.4229C97.858 42.6171 97.764 43.0005 97.5655 43.1594C97.3925 43.2977 97.4711 43.5144 97.6805 43.5144C98.1013 43.5144 98.4612 43.0907 98.8082 42.8898C99.1929 42.667 99.6425 42.3782 99.9754 42.081C100.26 41.8266 100.679 41.6123 101.027 41.4431C101.358 41.2827 101.818 41.1393 102.106 40.9237C102.479 40.6437 103.005 40.4592 103.424 40.2332C103.988 39.9298 104.559 39.5197 105.17 39.316C105.653 39.155 106.08 38.8222 106.587 38.7209C106.898 38.6588 107.308 38.535 107.583 38.3658C107.725 38.2786 108.033 38.1883 108.201 38.1883C108.436 38.1883 108.604 38.0699 108.839 38.0699C109.174 38.0699 109.584 38.1766 109.253 37.7608C108.791 37.1793 108.248 36.726 107.705 36.2222C107.237 35.7875 106.875 35.291 106.479 34.7953C106.378 34.6693 106.179 34.4088 106.028 34.3416C105.411 34.0671 104.892 33.3974 104.374 32.9837C104.004 32.6875 103.784 32.1528 103.368 31.9152C103.218 31.8293 103.027 31.6926 102.908 31.5733C102.779 31.4446 102.65 31.3322 102.507 31.205C102.387 31.0987 102.196 31.0088 102.093 30.8795C101.971 30.7269 100.506 31.8841 100.317 32.0204C100.025 32.2314 99.745 32.4633 99.4296 32.6385C99.2303 32.7493 99.0554 32.9741 98.851 33.0528C98.6512 33.1296 98.461 33.32 98.2789 33.4341C98.0545 33.5748 97.8261 33.7172 97.6082 33.8681C97.4502 33.9775 97.2955 34.0897 97.1348 34.1969C96.9861 34.296 96.8588 34.4697 96.7073 34.5454C96.3948 34.7017 96.1567 35.0106 95.9084 35.2589C95.6272 35.54 95.2672 35.8169 95.0207 36.1202C94.4219 36.8573 93.671 37.5909 92.9198 38.1751C92.2416 38.7026 91.6184 39.3267 91.0392 39.9505C90.5325 40.4962 90.1479 41.2177 89.757 41.8574C89.5601 42.1796 89.3588 42.5161 89.1586 42.8306C89.1005 42.922 88.977 43.2238 89.0172 43.1232C89.1174 42.8728 89.2889 42.6183 89.4315 42.39C90.4369 40.7815 91.6423 39.2883 92.7883 37.774C93.1553 37.289 93.5943 36.7126 94.0443 36.3077C94.3852 36.0008 94.6643 35.6161 95.0372 35.3476C95.1795 35.2451 95.253 35.0796 95.4054 34.9925C95.5899 34.8871 95.7651 34.7492 95.938 34.6243C96.3897 34.2981 96.8794 34.0217 97.3287 33.6906C97.8461 33.3093 98.3764 32.7889 98.9891 32.5662C99.0783 32.5337 100.37 32.0088 100.304 32.2242C99.9781 33.2839 98.8829 34.2038 98.0948 34.8939C96.8056 36.0227 95.39 37.0215 94.0311 38.0633C92.8222 38.9902 91.5543 39.9232 90.6118 41.1341C89.7461 42.2463 89.2507 43.3405 89.2507 44.7572C89.2507 45.499 89.3099 46.2391 89.3099 46.9765C89.3099 47.6991 89.1686 48.5985 88.6589 49.1365C88.2288 49.5905 87.9711 50.0597 87.7712 50.6489C87.6476 51.0131 87.4161 51.4354 87.4161 51.8292C87.4161 52.1153 87.4161 52.4013 87.4161 52.6873C87.4161 52.939 87.2977 53.1815 87.2977 53.4271C87.2977 53.6849 87.0706 54.4599 87.2517 54.6863C87.2962 54.7419 87.4257 55.14 87.5805 54.877C87.7351 54.6142 87.9419 54.3385 88.1263 54.0945C88.7233 53.3044 89.1102 52.2758 89.4742 51.3656C89.9961 50.061 90.7042 48.7953 91.3516 47.5485C91.8249 46.6369 92.2394 45.6655 92.7752 44.7868C93.2601 43.9916 93.6955 43.1258 94.3106 42.4196C96.1562 40.3005 98.8043 38.7608 101.488 37.9515C101.708 37.8852 101.92 37.774 102.152 37.774C102.376 37.774 101.708 37.8543 101.501 37.9384C100.553 38.3228 99.6446 38.7783 98.7326 39.2403C97.6609 39.7834 96.5032 40.1087 95.4251 40.6344C94.7435 40.9667 95.4196 40.6951 95.6881 40.5555C96.5022 40.1321 97.3469 39.7619 98.1408 39.2995C99.0704 38.7582 99.8789 38.0606 100.659 37.3269C101.243 36.7775 101.884 36.2073 102.323 35.5284C102.497 35.259 102.605 35.0289 102.172 35.2391C101.546 35.5424 100.964 35.9391 100.409 36.357C99.7541 36.8508 99.1053 37.3224 98.5255 37.9022C98.4882 37.9395 98.3722 38.0451 98.417 38.0173C98.7359 37.819 98.9978 37.4628 99.2619 37.2019C100.415 36.0628 101.616 34.7713 102.237 33.2467C102.453 32.7167 102.128 33.2141 101.997 33.4078C101.52 34.1147 101.027 34.8544 100.672 35.6304C100.636 35.7104 100.271 36.7058 100.521 36.6364C100.996 36.5047 101.412 36.0538 101.856 35.8342C102.29 35.6194 102.819 35.4387 103.309 35.466C103.561 35.48 103.3 36.2427 103.25 36.3471C102.879 37.1245 102.435 37.8341 101.83 38.4513C101.605 38.6799 101.381 38.9121 101.136 39.1187C101.017 39.2187 101.4 38.9767 101.429 38.9576C101.955 38.6043 102.445 38.2785 103.026 38.0107C103.251 37.9074 103.474 37.8098 103.714 37.7477C103.838 37.7155 103.992 37.7183 104.095 37.6326C104.11 37.6199 104.137 38.3968 104.358 38.3526C104.796 38.265 105.218 37.7712 105.397 37.3926C105.475 37.228 105.525 37.0795 105.525 36.8994C105.525 36.8759 105.51 36.7745 105.555 36.7745C105.584 36.7745 105.761 36.9999 105.788 37.0342C105.932 37.2196 105.751 37.1822 105.597 37.1822C104.846 37.1822 104.139 37.3547 103.408 37.511C101.545 37.909 99.6646 38.3499 97.8449 38.9116C96.1551 39.4331 94.4994 39.9909 92.9133 40.779C92.5505 40.9593 91.9699 41.1492 91.8086 41.5747C91.744 41.7448 91.7198 41.9334 91.6639 42.1073C91.638 42.1878 91.5114 42.5308 91.6836 42.4065C92.1336 42.0815 92.5188 41.5483 92.9133 41.1538C93.0286 41.0385 93.3135 40.6717 93.2815 40.8316C93.2486 40.996 92.8722 41.2901 92.7686 41.4201C92.0585 42.3115 91.3368 43.1817 90.5395 43.9977C90.1432 44.4033 89.6506 44.7764 89.3099 45.2307" stroke="#70AD61" stroke-width="3" stroke-linecap="round"/>
<path d="M95.8788 42.1533C96.0701 42.2011 95.8611 42.7757 95.8197 42.8634C95.7837 42.9396 95.7013 43.3055 95.7013 43.1002" stroke="#70AD61" stroke-width="3" stroke-linecap="round"/>
<path d="M58.9935 36.8887C59.1011 36.8691 59.411 36.6169 59.3142 36.7083C59.0974 36.913 58.8489 37.0562 58.7229 37.3397C58.6091 37.5956 57.7407 38.1896 57.7407 38.372C57.7407 38.6357 58.0748 37.9609 58.2719 37.7857C58.4965 37.586 58.7109 37.3516 58.9233 37.1393C59.3702 36.6924 58.5044 37.3089 58.3621 37.4299C58.2157 37.5543 57.9939 37.5525 57.8209 37.6303C57.7721 37.6523 57.4701 37.8135 57.4701 37.7406C57.4701 37.4822 58.1152 36.9738 58.312 36.8486C59.0131 36.4024 59.7401 35.9326 60.4767 35.4906C61.0435 35.1506 61.6046 34.7522 62.0803 34.293C62.3106 34.0706 62.6065 33.9475 62.872 33.7768C63.0493 33.6629 63.0988 33.4865 63.2529 33.3709C63.7172 33.0227 63.9071 32.4639 64.1799 31.9728C64.3455 31.6749 64.1281 31.3933 64.4054 31.116C64.5646 30.9568 64.8592 30.5511 65.127 30.685C65.4617 30.8523 65.7668 31.4956 66.0491 31.7674C66.3675 32.074 66.6989 32.345 67.0212 32.6493C68.0674 33.6374 69.2745 34.1665 70.4488 35.0146C71.0202 35.4273 71.726 35.847 72.1626 36.3926C72.6125 36.9551 73.2953 37.3693 73.736 37.936C74.521 38.9453 75.6021 39.9824 76.1313 41.1732C76.829 42.743 77.6647 44.4844 77.6647 46.2494C77.6647 47.4935 77.5745 48.7227 77.5745 49.9626C77.5745 50.6964 77.3953 51.6854 77.5946 52.3829C77.6971 52.7418 78 52.1243 78 52.5C78 52.7725 78.4412 52.7354 78.5 53C78.591 53.4094 78.673 54.2384 79 54.5C79.2707 54.7166 79.9699 57.0544 80 56C79.5 54.5 79.5 52.6077 79.5 50.9197C79.5 49.2172 79.673 47.5085 79.0879 45.9287C78.4372 44.172 76.8021 43.765 75.1742 43.0674C71.7693 41.6081 68.311 40.2485 64.7161 39.3241C63.9767 39.1339 63.3149 39.0535 62.5513 39.0535C62.1074 39.0535 61.7105 39.061 61.2935 38.9683C60.3869 38.7668 59.4751 38.6025 58.5475 38.6025C57.8543 38.6025 57.1611 38.6025 56.4679 38.6025C56.3305 38.6025 55.722 38.6025 56.1622 38.6025C56.7 38.6025 57.2358 38.8109 57.7307 39.0034C58.4337 39.2768 58.9782 39.6163 59.6249 39.9755C60.0074 40.188 60.4082 40.3053 60.8175 40.4265C61.1365 40.521 61.6982 40.4705 61.95 40.6971C62.1099 40.841 62.367 40.7974 62.5563 40.9026C62.7433 41.0065 63.211 41.1787 63.4182 41.2133C64.0736 41.3225 64.6286 41.6255 65.2172 41.9198C65.7102 42.1663 66.1528 42.4845 66.6203 42.7517C67.1845 43.0741 67.7698 43.8021 68.4143 43.9192C68.632 43.9588 69.0162 44.1651 69.2261 44.285C69.7551 44.5874 70.186 45.0215 70.7194 45.3474C71.1929 45.6368 71.8173 46.0143 72.2077 46.4047C72.71 46.9071 73.1933 47.3904 73.6959 47.893C73.938 48.135 74.2365 48.4242 74.5278 48.6146C74.8176 48.8041 75.0112 49.1277 75.3195 49.3162C75.7872 49.6019 76.0318 50.1357 76.447 50.4587C76.5273 50.5211 76.791 50.9692 76.9231 50.9197C77.0486 50.8726 76.227 47.6194 76.1514 47.3518C75.8548 46.3026 75.6421 45.1697 75.0439 44.2349C74.6638 43.641 74.1103 43.1457 73.741 42.5713C73.6038 42.3578 73.4955 42.3809 73.3151 42.2606C72.9452 42.014 72.6229 41.6875 72.2477 41.4337C70.88 40.5085 69.4537 39.7966 67.9633 39.0936C66.9416 38.6116 66.0108 38.0353 65.0569 37.4499C64.5282 37.1255 63.8727 36.6527 63.2328 36.6181C62.7632 36.5927 62.3106 36.5279 61.8347 36.5279C61.5047 36.5279 62.9114 34.7942 63.0925 34.5986C63.2213 34.4596 64.22 33.5605 63.9344 33.3008C63.7689 33.1503 63.2188 33.1125 63.0023 33.0602C62.6203 32.968 62.2 33.0101 61.8097 33.0101C61.4057 33.0101 61.0368 33.0581 60.6672 33.2306C60.6407 33.243 60.198 33.3824 60.2763 33.4411C60.3243 33.4771 61.2389 32.4472 61.3386 32.3086C61.3837 32.246 61.6623 32.1241 61.5892 32.2885C61.4586 32.5823 61.174 32.7993 60.9829 33.0502C60.5546 33.6123 60.0304 34.1379 59.5296 34.6387C58.8018 35.3665 57.9474 36.2247 57.4801 37.1593C57.3509 37.4177 57.1582 37.66 57.0091 37.921C56.9063 38.1008 56.4434 38.0613 56.6032 38.0613C57.1972 38.0613 57.5619 37.9202 58.0915 37.6554C59.0173 37.1925 60.0327 36.8875 60.9327 36.3826C61.5808 36.0191 62.3925 35.6144 62.9221 35.0847C63.1758 34.831 63.4018 34.5006 63.754 34.3832C64.3166 34.1956 64.8116 34.0123 65.3926 33.867C66.1668 33.6735 66.1105 34.6357 66.2545 35.1799C66.523 36.1943 66.2734 37.4037 67.0914 38.2217C67.4449 38.5752 68.6127 38.2739 69.0256 38.2217C69.4341 38.17 69.9647 38.0965 70.3435 37.926C70.7172 37.7578 70.793 38.0964 70.99 38.4221C71.736 39.656 72.3447 40.9278 72.794 42.3007C72.9506 42.7792 73.051 43.2913 73.3802 43.6937C73.5791 43.9367 73.9739 44.356 74.0567 44.6458C74.1639 45.021 74.3047 45.2852 73.6959 44.9866C72.3253 44.3142 71.2549 43.1504 70.0178 42.2806C69.2749 41.7583 68.4456 41.2987 67.7478 40.7172C66.8916 40.0037 66.7506 39.1663 66.7506 38.1214C66.7506 37.8893 66.8027 36.7568 66.9761 36.6181C67.4016 36.2777 67.9666 36.788 68.279 37.0691C68.5163 37.2827 68.7323 37.5074 68.9555 37.7306C69.001 37.7761 68.9473 37.5006 68.8252 37.4099C67.642 36.5309 66.257 36.5029 64.8364 36.4177C63.0776 36.3121 61.1747 36.2442 59.4545 36.7133C59.1303 36.8017 58.8346 37.2226 58.6327 37.475C58.3952 37.7719 57.4545 37.9293 57.0993 37.9711C56.8638 37.9988 55.6223 38.2417 56.3777 38.2417" stroke="#70AD61" stroke-width="3" stroke-linecap="round"/>
<path d="M81 126C78.5 123 77.4 120.9 75 120.5C72.6 120.1 63.5 120 47.5 120" stroke="#B18933" stroke-linecap="round"/>
<path d="M86 113C88.5 110 89.6 107.9 92 107.5C94.4 107.1 103.5 107 119.5 107" stroke="#B1A351" stroke-linecap="round"/>
<path d="M48.6502 55.3446C48.6502 55.57 48.4902 55.7845 48.462 56.0101C48.431 56.2581 48.3636 56.5085 48.3188 56.7552C48.1989 57.4143 48.0246 58.035 47.8176 58.6855C47.691 59.0835 47.6059 59.5416 47.5525 59.9556C47.4863 60.4683 47.3845 60.9626 47.3138 61.475C47.215 62.1913 47.1706 62.9572 47.1706 63.6758C47.1706 64.0212 46.9584 64.3455 46.932 64.6887C46.9226 64.8106 46.6458 65.5318 46.704 65.4736C47.0647 65.1129 47.928 65.0573 48.401 64.9963C48.8587 64.9372 49.3284 64.9803 49.7851 64.9008C50.1374 64.8396 50.4887 64.8425 50.8457 64.8425C52.6678 64.8425 54.4875 64.7472 56.308 64.8929C56.7389 64.9273 57.1639 64.938 57.5993 64.938C57.744 64.938 57.8766 64.9857 58.0288 64.9857C58.1727 64.9857 58.3658 65.0274 58.1216 64.983C57.9568 64.9531 57.8356 64.7993 57.7133 64.6993C57.4419 64.4772 57.1615 64.2764 56.9072 64.0311C56.5628 63.6988 56.2396 63.3663 55.9155 63.0182C55.6231 62.7041 55.3659 62.3472 55.0936 62.0159C54.7106 61.5501 54.2095 61.1637 53.7837 60.7379C53.3804 60.3346 52.9167 60.0034 52.5162 59.5924C52.1485 59.215 51.7671 58.7347 51.4662 58.3037C51.1626 57.8688 50.8136 57.3595 50.3684 57.0628" stroke="#8BA946" stroke-width="3" stroke-linecap="round"/>
<path d="M49.0798 58.3992C49.0798 59.1352 49.1275 59.8697 49.1275 60.6053C49.1275 61.0844 49.0798 61.5609 49.0798 62.0398C49.0798 62.2601 49.0893 62.4564 49.2733 62.1803C49.7778 61.4236 49.7002 60.4046 49.7002 59.5393C49.7002 59.5008 49.6532 59.1452 49.7692 59.2424C50.1806 59.5871 50.397 60.2598 50.5594 60.7432C50.7417 61.2861 50.8827 62.0185 51.2912 62.4534C51.4853 62.6601 51.4196 62.1318 51.4185 62.0371C51.4149 61.7443 51.3606 61.4611 51.3018 61.1754C51.2725 61.0333 51.2241 60.8582 51.331 61.0852C51.7107 61.8922 52.2754 62.6239 52.9564 63.1985C53.0022 63.2372 53.5185 63.617 53.5185 63.4345C53.5185 63.0473 55.2336 64.0662 55.3534 64.116C56.1756 64.4572 56.9749 64.5715 57.8379 64.6993M57.8379 64.6993C58.3464 64.7746 57.3517 64.531 57.8379 64.6993ZM57.8379 64.6993C58.2385 64.838 59.1488 65.1766 58.9595 65.1766" stroke="#8BA946" stroke-width="3" stroke-linecap="round"/>
<path d="M110.359 64.3048C110.359 64.135 108.936 65.2953 109.027 65.1587C109.201 64.8984 109.409 64.6342 109.655 64.4359C109.812 64.3094 109.946 64.1394 110.088 63.9978C110.257 63.8289 110.442 63.6721 110.615 63.5066C110.72 63.407 110.844 63.317 110.956 63.2248C111.07 63.1302 111.145 63.0022 111.249 62.8982C111.487 62.6599 111.722 62.4216 111.941 62.1643C112.171 61.8947 112.39 61.6176 112.619 61.3466C112.882 61.0351 113.162 60.7368 113.421 60.4228C113.652 60.1441 113.906 59.8844 114.137 59.6066C114.247 59.4749 114.358 59.3411 114.464 59.2061C114.574 59.0653 114.714 58.9581 114.827 58.8196C115.205 58.3548 115.69 57.983 116.085 57.5344C116.267 57.3277 116.48 57.1508 116.663 56.947C116.806 56.7876 116.997 56.5686 117.179 56.4558C117.3 56.381 117.405 56.2873 117.528 56.2172C117.546 56.207 117.615 56.9099 117.623 56.9958C117.673 57.5666 117.756 58.1328 117.829 58.701C117.912 59.3373 118.03 60.0132 118.265 60.6126C118.341 60.8061 118.383 61.0131 118.452 61.2098C118.508 61.3709 118.576 61.5216 118.622 61.6871C118.71 61.9993 118.802 62.3309 118.843 62.6526C118.883 62.9762 118.883 63.3027 118.943 63.621C118.984 63.8403 118.974 64.0814 118.974 64.3048C118.974 64.4284 119.027 64.8825 118.836 64.8825C118.555 64.8825 118.281 64.8823 118.002 64.8448C117.24 64.7424 116.476 64.7768 115.71 64.7443C114.63 64.6985 113.555 64.5559 112.474 64.5559C112.394 64.5559 112.289 64.5385 112.212 64.5615C112.152 64.5793 112.106 64.6062 112.041 64.6062C112.013 64.6062 111.905 64.6087 111.997 64.6257C112.246 64.6721 112.528 64.6785 112.781 64.6815C113.703 64.6926 114.646 64.7572 115.561 64.8769C116.133 64.9518 116.71 65.0079 117.276 65.1211C117.825 65.231 118.4 65.4099 118.961 65.4099C119.03 65.4099 119.074 65.4197 119.137 65.4336C119.25 65.4587 119.042 65.4033 119.018 65.3973C118.759 65.3325 118.481 65.3246 118.217 65.2829C117.769 65.2121 117.331 65.1255 116.886 65.0332C116.275 64.9062 115.667 64.7405 115.046 64.6704C114.353 64.5922 113.658 64.6062 112.962 64.6062C112.529 64.6062 112.056 64.5511 111.63 64.6438C111.558 64.6594 111.486 64.6726 111.414 64.6829C111.29 64.7006 111.931 64.0307 112 64C112.244 63.8904 111.954 64.4054 112.198 64.2894C112.695 64.0525 113.203 63.818 113.638 63.4759C114.475 62.8172 115.169 61.9767 115.909 61.2154C116.021 61.101 116.144 60.9881 116.186 60.8275C116.311 60.3405 116.422 59.8528 116.532 59.3624C116.662 58.781 116.796 58.2004 116.92 57.6181C116.946 57.4926 116.998 57.3684 117.04 57.247C117.078 57.1336 117.098 57.0113 117.14 56.9009C117.208 56.7203 117.24 56.5421 117.327 56.3679C117.366 56.2907 117.473 56.2006 117.493 56.1307C117.498 56.1143 117.517 56.3876 117.518 56.4307C117.531 56.775 117.542 57.1167 117.542 57.4619C117.542 58.7068 117.159 59.869 116.602 60.974C116.466 61.2421 116.343 61.5167 116.197 61.7791C116.121 61.915 116.042 62.0443 115.988 62.1908C115.95 62.2937 115.935 62.4361 115.935 62.5466C115.935 62.7649 115.841 63.0515 116.06 63.2094C116.331 63.4053 116.648 63.2007 116.925 63.1368C117.068 63.1038 117.208 63.0904 117.355 63.1006C117.512 63.1114 117.602 63.2281 117.696 63.342C118.046 63.7694 118.236 64.3045 118.591 64.7318C118.728 64.8966 118.828 65.077 118.979 65.2285C119.109 65.3581 119.317 65.3889 119.47 65.4853C119.517 65.5144 119.685 65.6611 119.677 65.6611C119.561 65.6611 119.453 65.7113 119.334 65.7113C118.77 65.7113 118.209 65.5443 117.658 65.4476C116.803 65.2977 115.936 65.2209 115.075 65.1099C114.479 65.0331 113.898 64.9204 113.311 64.7959C112.907 64.7101 112.516 64.7066 112.106 64.7066C111.841 64.7066 111.577 64.7066 111.313 64.7066C111.243 64.7066 110.792 64.7192 110.811 64.6815" stroke="#8BA946" stroke-width="3" stroke-linecap="round"/>
<path d="M45 105V92C53.6667 92 71.3 92 74.5 92C77.1301 92 80.2781 95.6028 82.0563 98.3667C82.7282 99.4112 83 100.647 83 101.889V113.5M45 105H75C76.5 105.167 80.2 107.1 83 113.5M45 105V117.5M83 113.5V125M45 117.5V130H75C77.6667 130.333 83 133.4 83 143V125M45 117.5L75 118C76.1667 118 79.4 119.4 83 125" stroke="black" stroke-width="1.5"/>
<path d="M121 105V92C112.333 92 94.2 92 91 92C88.3757 92 85.572 95.587 83.9128 98.3484C83.2731 99.413 83 100.647 83 101.889V113.5M121 105H91C89.5 105.167 85.8 107.1 83 113.5M121 105V117.5M83 113.5V125M121 117.5V130H91C88.3333 130.333 83 133.4 83 143V125M121 117.5L91 118C89.8333 118 86.6 119.4 83 125" stroke="black" stroke-width="1.5"/>
<path fill-rule="evenodd" clip-rule="evenodd" d="M116.007 92C118.554 85.5832 120 78.2932 120 70.5C120 43.7959 103.016 23 83 23C62.9835 23 46 43.7959 46 70.5C46 78.2932 47.4464 85.5832 49.9926 92H47.8609C45.3868 85.4979 44 78.2045 44 70.5C44 43.1619 61.4609 21 83 21C104.539 21 122 43.1619 122 70.5C122 78.2045 120.613 85.4979 118.139 92H116.007Z" fill="black"/>
<path d="M107 66.4388L107.078 67.1847L107.078 67.1847L107 66.4388ZM63.3124 43L63.6461 42.3284L63.6461 42.3284L63.3124 43ZM101.784 29.6942C102.167 29.5373 102.351 29.0994 102.194 28.716C102.037 28.3327 101.599 28.149 101.216 28.3058L101.784 29.6942ZM75.7042 92.2582C76.9826 88.7716 78.4946 83.1485 79.6714 76.0261L78.1914 75.7816C77.0258 82.8365 75.5342 88.3645 74.2958 91.7418L75.7042 92.2582ZM79.6714 76.0261C81.0283 67.8134 81.9434 57.5844 81.5345 46.3058L80.0355 46.3602C80.4403 57.5276 79.534 67.656 78.1914 75.7816L79.6714 76.0261ZM81.5345 46.3058C81.2643 38.854 80.4161 30.9412 78.7343 22.8474L77.2657 23.1526C78.9285 31.1547 79.768 38.9828 80.0355 46.3602L81.5345 46.3058ZM93.2115 91.2628C91.9871 87.5895 90.5247 82.0147 89.3215 75.2465L87.8446 75.5091C89.0585 82.337 90.5374 87.9839 91.7885 91.7372L93.2115 91.2628ZM89.3215 75.2465C88.4238 70.1971 87.6713 64.4895 87.269 58.4186L85.7722 58.5178C86.1786 64.6488 86.9383 70.4112 87.8446 75.5091L89.3215 75.2465ZM87.269 58.4186C86.9729 53.9513 86.8665 49.289 87.0308 44.5487L85.5317 44.4968C85.3654 49.2929 85.4732 54.006 85.7722 58.5178L87.269 58.4186ZM87.0308 44.5487C87.2706 37.6307 88.087 30.5521 89.7295 23.6742L88.2705 23.3258C86.6006 30.3185 85.7743 37.4987 85.5317 44.4968L87.0308 44.5487ZM79.6134 75.5684C79.589 75.5338 79.5642 75.499 79.5391 75.4643L78.3237 76.3435C78.3452 76.3731 78.3662 76.4025 78.3866 76.4316L79.6134 75.5684ZM79.539 75.4643C77.7477 72.988 73.6367 69.6963 67.5738 67.6307L67.09 69.0505C72.9237 71.0381 76.7507 74.169 78.3237 76.3435L79.539 75.4643ZM67.5738 67.6307C61.8402 65.6773 54.3386 64.8111 45.3407 66.7671L45.6593 68.2329C54.3886 66.3352 61.6129 67.1845 67.09 69.0505L67.5738 67.6307ZM66.8251 67.6728C66.7728 67.7807 66.7183 67.8911 66.6616 68.0041L68.0022 68.6771C68.0619 68.5582 68.1194 68.4415 68.1749 68.3272L66.8251 67.6728ZM66.6616 68.0041C65.2785 70.7592 62.6382 74.9055 59.2822 78.6468C55.9124 82.4035 51.9044 85.6578 47.8027 86.7764L48.1973 88.2236C52.7178 86.9907 56.9641 83.4774 60.3988 79.6484C63.8474 75.8039 66.5619 71.5462 68.0022 68.6771L66.6616 68.0041ZM47.5455 54.0966C49.2748 55.4142 52.2045 57.847 54.8473 60.345C56.1687 61.5941 57.4082 62.8498 58.3869 63.9838C59.3838 65.1388 60.0483 66.0982 60.2978 66.7633L61.7022 66.2367C61.3517 65.3018 60.5287 64.1696 59.5225 63.0037C58.4981 61.8168 57.2188 60.5226 55.8777 59.255C53.1955 56.7197 50.2252 54.2525 48.4545 52.9034L47.5455 54.0966ZM89.124 75.916C89.1486 75.8792 89.1738 75.8421 89.1997 75.8046L87.9663 74.951C87.9356 74.9954 87.9054 75.0398 87.876 75.084L89.124 75.916ZM89.1997 75.8046C91.301 72.7685 97.5701 68.1817 107.078 67.1847L106.922 65.6929C97.0573 66.7272 90.358 71.4952 87.9663 74.951L89.1997 75.8046ZM107.078 67.1847C110.765 66.7981 115.512 67.0261 120.318 68.2276L120.682 66.7724C115.706 65.5285 110.784 65.288 106.922 65.6929L107.078 67.1847ZM107.67 66.776C108.395 65.3362 109.839 62.9745 111.789 60.6319C113.743 58.2842 116.165 56.0058 118.835 54.6708L118.165 53.3292C115.235 54.7942 112.657 57.2454 110.636 59.6722C108.611 62.1041 107.105 64.5619 106.33 66.1016L107.67 66.776ZM53.3529 40.2354C55.745 40.7138 59.2414 41.8146 62.9786 43.6716L63.6461 42.3284C59.7972 40.4158 56.1757 39.2703 53.6471 38.7646L53.3529 40.2354ZM62.9786 43.6716C69.3772 46.8512 76.3727 52.1918 79.8096 60.2929L81.1904 59.7071C77.5606 51.151 70.2175 45.5937 63.6461 42.3284L62.9786 43.6716ZM62.716 42.5453C61.5821 44.0323 57.2287 47.5823 49.3887 48.7583L49.6113 50.2417C57.7713 49.0177 62.501 45.301 63.9088 43.4547L62.716 42.5453ZM64.654 29.1654C66.6093 30.1822 69.7387 32.3721 72.7517 35.4087C75.7643 38.4449 78.6135 42.2804 80.075 46.5746L81.495 46.0913C79.9354 41.5088 76.9247 37.4848 73.8165 34.3522C70.7086 31.22 67.4561 28.9318 65.346 27.8346L64.654 29.1654ZM74.6964 35.7785C75.2413 34.4161 75.672 31.8453 75.8235 29.46C75.9 28.2553 75.9078 27.061 75.8156 26.0521C75.7696 25.5479 75.6972 25.0746 75.5899 24.6621C75.4853 24.2602 75.3342 23.8622 75.1 23.55L73.9 24.45C73.9658 24.5378 74.0553 24.7211 74.1382 25.0398C74.2184 25.348 74.2804 25.735 74.3219 26.1885C74.4047 27.0953 74.4 28.2072 74.3265 29.365C74.178 31.7047 73.7587 34.0839 73.3036 35.2215L74.6964 35.7785ZM87.1294 58.9078L87.15 58.876L85.8912 58.0604L85.8706 58.0922L87.1294 58.9078ZM87.1498 58.8764C88.9578 56.0894 92.3634 51.8008 96.6931 48.0183C101.033 44.2272 106.224 41.0113 111.606 40.2425L111.394 38.7575C105.597 39.5857 100.141 43.0146 95.7062 46.8887C91.2619 50.7713 87.7673 55.1683 85.8914 58.06L87.1498 58.8764ZM102.886 42.9301C104.177 44.7751 108.682 48.6937 116.818 50.7276L117.182 49.2724C109.318 47.3063 105.156 43.5583 104.114 42.0699L102.886 42.9301ZM87.0149 44.6783C87.465 42.5554 89.4029 39.194 92.5337 36.0163L91.4652 34.9635C88.233 38.2441 86.0808 41.8517 85.5476 44.3672L87.0149 44.6783ZM92.5337 36.0163C94.9985 33.5146 98.1523 31.1798 101.784 29.6942L101.216 28.3058C97.3627 29.8822 94.0443 32.3458 91.4652 34.9635L92.5337 36.0163ZM92.7489 35.4587L92.7483 35.4486L91.2506 35.5312L91.2511 35.5413L92.7489 35.4587ZM92.7483 35.4485C92.6667 33.9723 92.6432 31.7627 92.835 29.6869C92.9309 28.6487 93.0792 27.6616 93.2943 26.8243C93.5134 25.9719 93.7847 25.3447 94.0856 24.9685L92.9143 24.0315C92.4161 24.6542 92.0796 25.5247 91.8416 26.4509C91.5996 27.3923 91.4415 28.4647 91.3413 29.5489C91.1409 31.7177 91.1662 34.0041 91.2506 35.5313L92.7483 35.4485ZM98.3698 68.9066C100.057 71.5225 103.059 75.6087 106.602 79.3996C110.126 83.1702 114.267 86.7399 118.241 88.2038L118.759 86.7962C115.133 85.4601 111.191 82.1131 107.698 78.3754C104.224 74.658 101.276 70.6442 99.6302 68.0934L98.3698 68.9066Z" fill="black"/>
</svg>
